<?xml version="1.0" encoding="UTF-8" standalone="no"?>
<svg
   xmlns:dc="http://purl.org/dc/elements/1.1/"
   xmlns:cc="http://creativecommons.org/ns#"
   xmlns:rdf="http://www.w3.org/1999/02/22-rdf-syntax-ns#"
   xmlns:svg="http://www.w3.org/2000/svg"
   xmlns="http://www.w3.org/2000/svg"
   id="svg8"
   version="1.1"
   viewBox="0 0 270.93334 270.93333"
   height="1024"
   width="1024">
  <defs
     id="defs2" />
  <metadata
     id="metadata5">
    <rdf:RDF>
      <cc:Work
         rdf:about="">
        <dc:format>image/svg+xml</dc:format>
        <dc:type
           rdf:resource="http://purl.org/dc/dcmitype/StillImage" />
        <dc:title></dc:title>
      </cc:Work>
    </rdf:RDF>
  </metadata>
  <g
     transform="translate(0,-26.066673)"
     id="layer1">
    <flowRoot
       transform="scale(0.26458333)"
       style="font-style:normal;font-variant:normal;font-weight:normal;font-stretch:normal;font-size:40px;line-height:1.2;font-family:'Luckiest Guy';-inkscape-font-specification:'Luckiest Guy';letter-spacing:0px;word-spacing:0px;fill:#ffffff;fill-opacity:1;stroke:none;"
       id="flowRoot10"
       xml:space="preserve"><flowRegion
         style="font-style:normal;font-variant:normal;font-weight:normal;font-stretch:normal;font-family:'Luckiest Guy';-inkscape-font-specification:'Luckiest Guy';fill:#ffffff;fill-opacity:1;"
         id="flowRegion12"><rect
           style="font-style:normal;font-variant:normal;font-weight:normal;font-stretch:normal;font-family:'Luckiest Guy';-inkscape-font-specification:'Luckiest Guy';fill:#ffffff;fill-opacity:1;"
           y="304.24728"
           x="98.637253"
           height="259.79108"
           width="330.64319"
           id="rect14" /></flowRegion><flowPara
         id="flowPara16" /></flowRoot>    <path
       id="text20"
       transform="matrix(0.26458333,0,0,0.26458333,0,26.066673)"
       d="M 180.00977 344.97656 C 173.32535 349.55383 166.85067 354.41353 160.59766 359.57227 C 134.86738 380.74275 114.18632 406.63618 98.552734 437.25195 C 83.244847 467.54203 75.589844 501.90337 75.589844 540.33594 C 75.589844 568.34612 80.149938 594.40212 89.269531 618.50391 C 98.389124 642.27999 111.09197 662.96104 127.37695 680.54883 C 143.98764 697.81092 163.6932 711.32862 186.49219 721.09961 C 209.61687 730.8706 235.18318 735.75586 263.19336 735.75586 L 278.82812 735.75586 C 285.34212 735.75586 292.34289 736.08102 299.83398 736.73242 C 307.32508 737.38382 314.98008 738.52384 322.79688 740.15234 C 330.61366 741.45514 337.61639 743.57261 343.80469 746.50391 C 349.99298 749.1095 355.04082 752.69216 358.94922 757.25195 C 362.85762 761.48605 364.8125 766.69647 364.8125 772.88477 C 364.8125 782.00436 362.04276 789.00708 356.50586 793.89258 C 350.96896 798.77807 344.13078 802.52331 335.98828 805.12891 C 328.17149 807.4088 319.86616 808.87594 311.07227 809.52734 C 302.27837 809.85304 294.78595 810.01563 288.59766 810.01562 C 256.02768 810.01563 222.80637 805.78069 188.93359 797.3125 C 155.38652 788.51861 124.77042 775.81577 97.085938 759.20508 L 75.589844 960.48828 C 89.594933 967.00228 105.55526 974.005 123.46875 981.49609 C 141.70794 988.66149 160.59865 995.50166 180.14062 1002.0156 C 199.68261 1008.2039 218.89848 1013.4143 237.78906 1017.6484 C 257.00535 1021.8825 274.59345 1024 290.55273 1024 C 331.9166 1024 370.51092 1018.4625 406.33789 1007.3887 C 442.49056 996.31485 473.92153 979.70422 500.62891 957.55664 C 510.11543 949.78455 518.86365 941.31548 526.90625 932.17969 C 501.67263 913.21968 480.03748 889.64024 464.00391 861.11328 C 427.22105 795.49679 417.31222 712.7701 442.52148 641.35938 C 449.68085 620.45869 461.31445 602.07442 476.01172 586.56445 C 458.78389 580.48071 439.96161 576.78874 419.5293 575.51172 C 414.3181 574.86032 407.64054 574.69774 399.49805 575.02344 L 373.11719 575.02344 C 363.67189 574.69774 354.06396 574.04546 344.29297 573.06836 C 334.84768 572.09126 326.0546 570.46349 317.91211 568.18359 C 310.09532 565.578 303.58034 562.15792 298.36914 557.92383 C 293.48364 553.36403 290.87843 547.50133 290.55273 540.33594 C 290.22703 534.14764 291.8548 528.77269 295.4375 524.21289 C 299.0202 519.65309 303.74287 516.07044 309.60547 513.46484 C 315.46806 510.53355 322.14562 508.2535 329.63672 506.625 C 337.12781 504.9965 344.4557 503.85648 351.62109 503.20508 C 359.11219 502.22798 366.11491 501.74023 372.62891 501.74023 C 379.4686 501.41453 385.00614 501.25195 389.24023 501.25195 C 412.36492 501.25195 435.9783 503.85716 460.08008 509.06836 C 484.50756 513.95386 507.79382 520.14172 529.94141 527.63281 L 533.84961 485.86914 C 518.18516 490.00995 502.68371 494.79876 487.41797 499.98242 C 484.71228 471.08821 482.00922 442.19345 479.30469 413.29883 C 376.94912 401.02578 276.09309 379.68813 180.00977 344.97656 z "
       style="font-style:normal;font-variant:normal;font-weight:normal;font-stretch:normal;font-size:264.7px;line-height:1.2;font-family:'Luckiest Guy';-inkscape-font-specification:'Luckiest Guy';letter-spacing:0px;word-spacing:0px;fill:#ffffff;fill-opacity:1;stroke:none;stroke-width:25" />
    <g
       id="text20-8"
       style="font-style:normal;font-variant:normal;font-weight:normal;font-stretch:normal;font-size:264.7px;line-height:1.2;font-family:'Luckiest Guy';-inkscape-font-specification:'Luckiest Guy';letter-spacing:0px;word-spacing:0px;fill:#ffffff;fill-opacity:1;stroke:none;stroke-width:6.6"
       transform="scale(-1,1)"
       aria-label="S" />
    <g
       id="text20-8-1"
       style="font-style:normal;font-variant:normal;font-weight:normal;font-stretch:normal;font-size:264.7px;line-height:1.2;font-family:'Luckiest Guy';-inkscape-font-specification:'Luckiest Guy';letter-spacing:0px;word-spacing:0px;fill:#ffffff;fill-opacity:1;stroke:none;stroke-width:6.6"
       transform="matrix(-1,0,0,1,0,2.6233333e-5)"
       aria-label="S">
      <path
         id="path42"
         transform="matrix(-0.26458333,0,0,0.26458333,0,26.066647)"
         d="M 922.32812 393.53906 C 840.37353 426.70764 750.16721 425.98391 664.05469 426.51367 C 604.97384 424.83058 545.74525 420.99301 486.98242 414.21094 L 494.06055 489.83789 C 516.20812 482.34682 539.49439 476.15896 563.92188 471.27344 C 588.02367 466.06225 611.63706 463.45703 634.76172 463.45703 C 638.99582 463.45703 644.53336 463.61962 651.37305 463.94531 C 657.88706 463.94531 664.88979 464.43305 672.38086 465.41016 C 679.54626 466.06155 686.87414 467.20158 694.36523 468.83008 C 701.85633 470.45858 708.53195 472.73862 714.39453 475.66992 C 720.25713 478.27553 724.97979 481.85817 728.5625 486.41797 C 732.14519 490.97777 733.77491 496.35272 733.44922 502.54102 C 733.1235 509.7064 730.51831 515.56911 725.63281 520.12891 C 720.42163 524.36301 713.90664 527.78307 706.08984 530.38867 C 697.94736 532.66856 689.15428 534.29633 679.70898 535.27344 C 669.93797 536.25052 660.33006 536.9028 650.88477 537.22852 L 624.50195 537.22852 C 616.35946 536.9028 609.68387 537.06538 604.47266 537.7168 C 578.41669 539.34529 554.96589 544.88088 534.12109 554.32617 C 513.27632 563.77146 495.68821 576.31173 481.35742 591.94531 C 466.70092 607.5789 455.62779 626.30702 448.13672 648.12891 C 440.31993 669.6251 436.41016 693.40104 436.41016 719.45703 C 436.41016 764.07788 444.22774 803.1619 459.86133 836.70898 C 475.1692 869.93035 496.33995 897.61414 523.37305 919.76172 C 550.08042 941.90932 581.50944 958.51996 617.66211 969.59375 C 653.48908 980.66754 692.08534 986.20508 733.44922 986.20508 C 749.4085 986.20508 766.99661 984.08762 786.21289 979.85352 C 805.10347 975.61941 824.31933 970.409 843.86133 964.2207 C 863.4033 957.70671 882.29401 950.86655 900.5332 943.70117 C 918.4467 936.21007 934.40507 929.20735 948.41016 922.69336 L 926.91406 721.41016 C 899.2296 738.02085 868.61349 750.72368 835.06641 759.51758 C 801.19363 767.98576 767.97232 772.2207 735.40234 772.2207 C 729.21405 772.2207 721.72356 772.05812 712.92969 771.73242 C 704.13579 771.08103 695.83047 769.6139 688.01367 767.33398 C 679.87118 764.72838 673.03105 760.98315 667.49414 756.09766 C 661.95726 751.21216 659.18945 744.20944 659.18945 735.08984 C 659.18945 728.90155 661.14435 723.69111 665.05273 719.45703 C 668.96114 714.89723 674.00897 711.31459 680.19727 708.70898 C 686.38556 705.77768 693.38828 703.66023 701.20508 702.35742 C 709.02187 700.72892 716.67492 699.58889 724.16602 698.9375 C 731.65709 698.28609 738.65981 697.96094 745.17383 697.96094 L 760.80859 697.96094 C 788.81877 697.96094 814.38508 693.07567 837.50977 683.30469 C 860.30876 673.5337 880.01433 660.01599 896.625 642.75391 C 912.91 625.16613 925.61087 604.48509 934.73047 580.70898 C 943.85007 556.60721 948.41016 530.5512 948.41016 502.54102 C 948.41016 464.10844 940.75711 429.7471 925.44922 399.45703 C 924.43129 397.46358 923.38886 395.49247 922.32812 393.53906 z "
         style="font-style:normal;font-variant:normal;font-weight:normal;font-stretch:normal;font-family:'Luckiest Guy';-inkscape-font-specification:'Luckiest Guy';stroke-width:25;fill:#ffffff;fill-opacity:1" />
    </g>
    <path
       id="path135"
       d="m 60.066617,92.828162 c 0,0 11.384012,-71.792914 39.262756,-66.413384 13.939367,2.689763 26.788457,13.87319 36.152707,24.384176 9.36425,10.510986 13.90241,7.94293 13.90241,7.94293 0,0 17.42509,-13.520142 26.40129,-10.499496 23.53896,7.92127 38.50251,63.788872 38.50251,63.788872 0,0 -14.34681,13.7734 -82.98632,7.09749 C 62.662477,112.45284 60.066617,92.828162 60.066617,92.828162 Z"
       style="fill:#ffffff;stroke:none;stroke-width:0.4px;stroke-linecap:butt;stroke-linejoin:miter;stroke-opacity:1;fill-opacity:1" />
    <ellipse
       transform="matrix(0.9931342,0.11698058,-0.15529131,0.98786872,0,0)"
       ry="29.77013"
       rx="119.73222"
       cy="87.982437"
       cx="149.69066"
       id="path109"
       style="fill:#ffffff;stroke-width:0.2;fill-opacity:1" />
  </g>
</svg>
